<svg width="158" height="29" viewBox="0 0 158 29" fill="none" xmlns="http://www.w3.org/2000/svg">
<rect x="52" width="51" height="29" fill="#003C82"/>
<mask id="path-2-inside-1_62_2750" fill="white">
<path d="M103 0H158V29H103V0Z"/>
</mask>
<path d="M103 0H158V29H103V0Z" fill="white"/>
<path d="M158 0H159V-1H158V0ZM158 29V30H159V29H158ZM103 1H158V-1H103V1ZM157 0V29H159V0H157ZM158 28H103V30H158V28Z" fill="#003C82" mask="url(#path-2-inside-1_62_2750)"/>
<path d="M14.328 6.56L14.592 6.824V17.504C14.592 21.584 10.992 23.36 8.136 23.36C5.28 23.36 1.68 21.584 1.68 17.504V6.824L1.944 6.56H5.184L5.448 6.824V16.952C5.448 18.608 6.552 19.76 8.136 19.76C9.72 19.76 10.824 18.608 10.824 16.952V6.824L11.088 6.56H14.328ZM30.5696 6.56L30.8336 6.824V22.736L30.5696 23H26.9216L26.5616 22.784L21.6896 12.992V22.736L21.4256 23H18.3296L18.0656 22.736V6.824L18.3296 6.56H21.9776L22.3376 6.752L27.2096 16.568V6.824L27.4736 6.56H30.5696ZM46.761 19.4L47.025 19.664V22.736L46.761 23H34.689L34.425 22.736V6.824L34.689 6.56H46.713L46.977 6.824V9.896L46.713 10.16H38.193V12.632H44.217L44.481 12.896V15.824L44.217 16.088H38.193V19.4H46.761ZM114.62 6.56C118.748 6.56 120.788 9.032 120.788 12.008C120.788 13.832 120.068 15.416 118.508 16.424L120.98 22.736L120.788 23H117.308L116.948 22.76L114.956 17.432H111.716V22.736L111.452 23H108.212L107.948 22.736V6.824L108.212 6.56H114.62ZM117.02 12.008C117.02 10.952 116.252 10.016 114.86 10.016H111.716V14.024H114.86C116.252 14.024 117.02 13.064 117.02 12.008ZM132.546 6.824L137.298 22.736L137.034 23H133.626L133.362 22.736L132.498 19.64H127.314L126.45 22.736L126.186 23H122.874L122.61 22.736L127.362 6.824L127.626 6.56H132.282L132.546 6.824ZM129.954 10.28L128.274 16.256H131.586L129.954 10.28ZM146.672 13.328C149.144 14.024 150.992 15.392 150.992 18.248C150.992 21.368 148.568 23.36 144.656 23.36C140.864 23.36 138.32 21.152 138.32 17.672L138.584 17.408H141.824L142.088 17.672C142.088 18.968 143.12 19.976 144.848 19.976C146.096 19.976 147.224 19.448 147.224 18.32C147.224 16.928 146.144 16.688 143.6 16.088C140.96 15.464 138.752 14.36 138.752 11.144C138.752 7.856 141.632 6.2 144.728 6.2C147.656 6.2 150.68 7.832 150.68 11.504L150.416 11.768H147.176L146.912 11.504C146.888 10.448 146.336 9.536 144.632 9.536C143.264 9.536 142.52 10.136 142.52 11.072C142.52 12.488 143.888 12.512 146.672 13.328Z" fill="#003C82"/>
<path d="M64.5261 10.16V19.4H67.1901L67.4541 19.664V22.736L67.1901 23H58.1181L57.8541 22.736V19.664L58.1181 19.4H60.7581V10.16H58.1181L57.8541 9.896V6.824L58.1181 6.56H67.1901L67.4541 6.824V9.896L67.1901 10.16H64.5261ZM77.9068 13.328C80.3788 14.024 82.2268 15.392 82.2268 18.248C82.2268 21.368 79.8028 23.36 75.8908 23.36C72.0988 23.36 69.5548 21.152 69.5548 17.672L69.8188 17.408H73.0588L73.3228 17.672C73.3228 18.968 74.3548 19.976 76.0828 19.976C77.3308 19.976 78.4588 19.448 78.4588 18.32C78.4588 16.928 77.3788 16.688 74.8348 16.088C72.1948 15.464 69.9868 14.36 69.9868 11.144C69.9868 7.856 72.8668 6.2 75.9628 6.2C78.8908 6.2 81.9148 7.832 81.9148 11.504L81.6508 11.768H78.4108L78.1468 11.504C78.1228 10.448 77.5708 9.536 75.8668 9.536C74.4988 9.536 73.7548 10.136 73.7548 11.072C73.7548 12.488 75.1228 12.512 77.9068 13.328ZM91.4608 6.56C95.5888 6.56 97.6288 9.032 97.6288 11.984C97.6288 14.936 95.5888 17.432 91.4608 17.432H88.7008V22.736L88.4368 23H85.1968L84.9328 22.736V6.824L85.1968 6.56H91.4608ZM91.7248 14.024C93.0928 14.024 93.8608 13.088 93.8608 12.008C93.8608 10.952 93.0928 10.016 91.7248 10.016H88.7008V14.024H91.7248Z" fill="white"/>
</svg>
